HIERARCHY
ROOT Hips
{
	OFFSET	0.000000	0.000000	0.000000
	CHANNELS 6 Xposition Yposition Zposition Zrotation Xrotation Yrotation
	JOINT LeftHip
	{
		OFFSET	4.500000	0.000000	0.000000
		CHANNELS 3 Zrotation Xrotation Yrotation
		JOINT LeftKnee
		{
			OFFSET	0.000000	-14.500000	0.000000
			CHANNELS 3 Zrotation Xrotation Yrotation
			JOINT LeftAnkle
			{
				OFFSET	0.000000	-15.000000	0.000000
				CHANNELS 3 Zrotation Xrotation Yrotation
				End Site
				{
					OFFSET	0.000000	-4.000000	-2.500000
				}
			}
		}
	}
	JOINT RightHip
	{
		OFFSET	-4.750000	0.000000	0.000000
		CHANNELS 3 Zrotation Xrotation Yrotation
		JOINT RightKnee
		{
			OFFSET	0.000000	-14.500000	0.000000
			CHANNELS 3 Zrotation Xrotation Yrotation
			JOINT RightAnkle
			{
				OFFSET	0.000000	-15.000000	0.000000
				CHANNELS 3 Zrotation Xrotation Yrotation
				End Site
				{
					OFFSET	0.000000	-4.000000	-2.500000
				}
			}
		}
	}
	JOINT Chest
	{
		OFFSET	0.000000	3.000000	-1.000000
		CHANNELS 3 Zrotation Xrotation Yrotation
		JOINT LeftCollar
		{
			OFFSET	0.000000	16.000000	1.000000
			CHANNELS 3 Zrotation Xrotation Yrotation
			JOINT LeftShoulder
			{
				OFFSET	6.500000	0.000000	0.000000
				CHANNELS 3 Zrotation Xrotation Yrotation
				JOINT LeftElbow
				{
					OFFSET	0.000000	-9.000000	0.000000
					CHANNELS 3 Zrotation Xrotation Yrotation
					JOINT LeftWrist
					{
						OFFSET	0.000000	-9.500000	0.000000
						CHANNELS 3 Zrotation Xrotation Yrotation
						End Site
						{
							OFFSET	0.000000	-5.000000	0.000000
						}
					}
				}
			}
		}
		JOINT RightCollar
		{
			OFFSET	0.000000	16.000000	1.000000
			CHANNELS 3 Zrotation Xrotation Yrotation
			JOINT RightShoulder
			{
				OFFSET	-6.500000	0.000000	0.000000
				CHANNELS 3 Zrotation Xrotation Yrotation
				JOINT RightElbow
				{
					OFFSET	0.000000	-9.000000	0.000000
					CHANNELS 3 Zrotation Xrotation Yrotation
					JOINT RightWrist
					{
						OFFSET	0.000000	-9.500000	0.000000
						CHANNELS 3 Zrotation Xrotation Yrotation
						End Site
						{
							OFFSET	0.000000	-5.000000	0.000000
						}
					}
				}
			}
		}
		JOINT Neck
		{
			OFFSET	0.000000	16.000000	1.000000
			CHANNELS 3 Zrotation Xrotation Yrotation
			JOINT Head
			{
				OFFSET	0.000000	6.000000	0.000000
				CHANNELS 3 Zrotation Xrotation Yrotation
				End Site
				{
					OFFSET	0.000000	6.000000	0.000000
				}
			}
		}
	}
}
MOTION
Frames:    19
Frame Time: 0.016667
-42.620228	31.837221	69.346863	-8.264346	2.533577	47.080647	-3.105240	-13.059937	34.814812	3.000000	51.520000	0.000000	5.636496	19.876215	7.442460	19.477217	-18.376808	-10.083862	-3.000000	25.047152	0.000000	-6.407324	-2.381037	-21.506165	-44.505566	1.232838	-36.933105	3.819135	-7.476225	0.497651	30.414518	-40.780743	-54.790001	-1.358628	-65.042686	-4.457714	-42.553879	7.588353	50.216408	3.819135	-7.476225	0.497651	-49.097908	27.736628	-48.589890	-1.039047	-29.592896	5.404444	-22.026283	-5.977170	14.224336	27.737833	25.165602	-4.828848	-46.463154	-28.683889	46.242588	
-42.836994	31.931011	69.381859	-7.634355	2.787358	47.551548	-4.104919	-12.090747	33.751575	3.000000	48.180901	0.000000	6.736662	21.965441	6.194754	18.640512	-19.042814	-10.254534	-3.000000	25.643450	0.000000	-4.699201	0.364310	-20.142834	-43.942249	1.219111	-36.918999	3.654637	-7.236387	0.460965	30.943865	-41.720993	-54.207443	-1.453971	-65.548874	-4.544332	-42.370506	6.400364	52.295902	3.654637	-7.236387	0.460965	-48.833256	27.208935	-48.937965	-1.012940	-29.832275	5.417383	-21.333071	-6.131196	14.193997	27.498304	25.183844	-4.790327	-46.281807	-28.467287	46.454067	
-43.319202	31.951252	69.258171	-6.947336	3.050251	47.925636	-5.423228	-12.096574	32.347435	3.000000	45.315460	0.000000	6.928890	23.609440	5.633843	17.955212	-20.663254	-10.236829	-3.000000	26.918871	0.000000	-3.546995	3.740448	-19.228140	-43.459400	1.207455	-36.906803	3.412235	-7.399114	0.439940	31.271423	-42.283154	-53.848141	-1.551449	-66.046783	-4.633243	-41.653828	5.747026	54.216549	3.412235	-7.399114	0.439940	-48.758961	27.057734	-49.100868	-0.960075	-30.313499	5.443874	-21.174389	-6.107572	14.188302	27.209692	25.019482	-4.739348	-45.901039	-28.703556	46.517853	
-43.564911	31.890984	69.272430	-6.607337	3.219364	48.054363	-6.246891	-11.770768	30.242603	3.000000	43.275635	0.000000	6.352342	24.502079	5.686038	17.403103	-22.593962	-10.163181	-3.000000	29.101870	0.000000	-1.959046	7.767665	-19.053671	-42.413231	1.182557	-36.880035	3.089576	-7.723269	0.415600	31.494095	-42.657074	-53.604389	-1.662254	-66.589973	-4.734718	-40.811317	5.403941	56.087528	3.089576	-7.723269	0.415600	-48.758961	27.057734	-49.100868	-0.928107	-30.602232	5.460080	-20.936375	-6.072166	14.179633	27.209692	25.019482	-4.739348	-45.127495	-28.681242	46.455482	
-43.651627	31.737307	69.258583	-6.505560	3.329711	48.120296	-6.987559	-11.769176	28.641319	3.000000	40.616081	0.000000	5.325542	25.694519	5.786749	16.989042	-24.835728	-10.193539	-3.000000	31.862150	0.000000	-1.136657	11.424820	-20.371969	-41.380089	0.594336	-36.852619	2.764368	-7.725483	0.371889	31.950081	-43.402771	-53.106403	-1.772511	-67.107773	-4.836096	-39.912182	5.393551	57.382946	2.764368	-7.725483	0.371889	-49.115864	26.739473	-49.069031	-0.899813	-30.856333	5.474537	-20.888700	-5.935911	14.073577	27.137447	24.901144	-4.724772	-44.787155	-29.018715	46.337276	
-43.257309	31.464417	69.439484	-6.464752	3.115707	48.118141	-7.722339	-10.787231	26.586729	3.000000	37.737289	0.000000	4.771828	27.081663	5.868601	16.426096	-26.774527	-10.210392	-3.000000	35.914738	0.000000	-0.092398	14.772974	-22.032730	-40.253147	0.568607	-36.822826	2.440574	-7.968932	0.338553	31.904308	-44.090794	-52.999626	-1.874789	-67.569023	-4.930479	-38.958340	4.827764	58.479286	2.440574	-7.968932	0.338553	-49.115864	26.739473	-49.069031	-0.900039	-30.854311	5.474422	-20.415361	-5.843000	14.074279	27.137447	24.901144	-4.724772	-44.638714	-29.142717	46.247520	
-42.820488	31.062820	69.619324	-6.430776	2.725656	48.122906	-8.207561	-9.805969	24.921698	3.000000	34.898918	0.000000	4.166683	28.883989	5.980643	16.144098	-28.784733	-10.123420	-3.000000	40.162430	0.000000	-0.162267	18.833536	-23.724041	-38.804211	0.536395	-36.783791	2.115170	-7.970710	0.293435	32.383114	-44.833790	-52.481911	-1.910503	-67.725929	-4.963511	-38.726555	4.261770	59.040489	2.115170	-7.970710	0.293435	-49.006313	26.513685	-49.313457	-0.829132	-31.485235	5.511122	-19.772816	-5.787485	13.869437	27.390917	25.316395	-4.776059	-45.366463	-28.446001	46.136429	
-42.115036	30.707783	69.891228	-6.260679	2.130238	48.147774	-8.527504	-8.825769	23.540182	3.000000	32.000046	0.000000	3.757642	30.382612	6.069860	15.410935	-30.420269	-10.334908	-3.000000	44.640656	0.000000	1.283830	24.287867	-26.153009	-37.428917	0.829082	-36.746265	1.952467	-7.971504	0.270872	32.534161	-45.800720	-52.171913	-1.916009	-67.749939	-4.968606	-37.978775	3.673005	59.946503	1.952467	-7.971504	0.270872	-49.006313	26.513685	-49.539043	-0.812964	-31.627914	5.519583	-19.319769	-5.972401	13.850780	27.415333	25.564188	-4.786157	-45.901772	-28.481586	45.968163	
-42.417564	31.063925	69.733116	-6.028280	1.394591	48.295509	-8.845024	-7.628515	22.019480	3.000000	28.990383	0.000000	3.694714	32.527309	5.808913	14.943923	-32.566628	-10.403306	-3.000000	49.583481	0.000000	3.835050	31.827450	-28.291265	-36.141155	0.802144	-36.065701	1.708412	-7.972574	0.237024	32.704987	-46.537998	-51.894371	-1.954115	-67.914734	-5.003896	-37.476631	2.980197	60.757198	1.708412	-7.972574	0.237024	-48.933998	26.362926	-49.701462	-0.758072	-32.109062	5.548565	-19.002609	-5.925410	13.837435	27.597309	25.863935	-4.823446	-45.390720	-28.405226	45.926323	
-42.724060	31.370903	69.531113	-5.910177	0.913792	48.453907	-9.164092	-6.757479	20.816280	3.000000	26.316948	0.000000	3.630035	34.008110	5.697362	14.461790	-34.714378	-10.520906	-3.000000	53.644215	0.000000	7.681230	40.137234	-29.508770	-35.017586	0.618141	-35.872509	1.708412	-7.972574	0.237024	32.898857	-46.815010	-51.905296	-1.970486	-67.984810	-5.019069	-37.085838	2.801257	61.507282	1.708412	-7.972574	0.237024	-48.933998	26.362926	-49.701462	-0.758207	-32.107883	5.548493	-18.607767	-5.852536	13.832267	27.816954	26.225626	-4.868749	-44.838543	-28.166037	45.828964	
-43.003033	31.637602	69.321785	-5.990636	0.511375	48.694149	-9.160034	-6.105885	20.207973	3.000000	23.901390	0.000000	3.417153	35.514786	5.241272	13.920358	-36.648014	-10.726314	-3.000000	56.904026	0.000000	13.390714	47.120964	-30.631392	-34.301075	0.200997	-35.690506	1.708412	-7.972574	0.237024	32.796074	-47.873730	-51.570866	-1.986296	-68.052101	-5.033730	-36.563461	2.353342	62.726635	1.708412	-7.972574	0.237024	-49.148788	26.280375	-49.606224	-0.802165	-31.722967	5.525253	-18.607767	-5.852536	13.832267	27.964176	26.467960	-4.899296	-44.507874	-27.783737	45.782299	
-43.319328	31.926012	69.033546	-6.250896	0.154785	48.968136	-9.318258	-5.453422	19.906460	3.000000	20.895767	0.000000	4.727463	36.893734	4.258053	13.498880	-38.235226	-10.908731	-3.000000	61.051994	0.000000	17.681934	52.483719	-29.699800	-33.426311	-0.380095	-35.342571	1.952467	-7.971504	0.270872	32.640781	-48.380363	-51.603954	-2.010006	-68.152275	-5.055729	-35.881123	1.851102	64.376251	1.952467	-7.971504	0.270872	-49.684418	26.072594	-49.369938	-0.846562	-31.330921	5.502038	-18.209887	-5.424297	13.765432	27.950495	26.659910	-4.902276	-44.509766	-27.620811	45.566002	
-43.409195	32.098053	68.739319	-6.834740	-0.284080	49.430641	-9.315951	-5.019091	19.448343	3.000000	18.537571	0.000000	5.664676	38.454906	3.281694	13.228210	-39.583809	-11.026456	-3.000000	64.932297	0.000000	19.555143	55.097614	-29.061974	-32.786621	-0.634036	-35.323769	2.356524	-7.486411	0.307204	32.491123	-48.656597	-51.675735	-2.019873	-68.193710	-5.064888	-34.738117	1.218308	65.730316	2.356524	-7.486411	0.307204	-49.898140	25.988926	-49.276146	-0.911687	-30.749849	5.468456	-17.660702	-5.292660	13.779924	27.840181	26.477455	-4.879266	-44.319519	-27.637856	45.727081	
-43.510712	32.273685	68.544632	-7.220068	-0.722181	49.820217	-9.311917	-4.150430	19.095972	3.000000	15.884391	0.000000	6.016311	39.832214	2.991901	13.162087	-40.359909	-11.042175	-3.000000	68.888367	0.000000	21.388346	56.430531	-28.980333	-31.912529	-1.295004	-35.297840	3.004411	-7.160657	0.374844	32.538765	-49.441624	-51.501865	-2.050208	-68.320152	-5.093065	-34.167294	1.016536	67.267006	3.004411	-7.160657	0.374844	-50.324665	25.820658	-48.864216	-0.954400	-30.364887	5.446741	-17.660702	-5.292660	13.779924	27.789198	26.608541	-4.874454	-44.491096	-27.474777	45.771362	
-43.507706	32.354237	68.239288	-7.548440	-1.120648	50.159542	-9.551966	-3.606603	18.387115	3.000000	13.964427	0.000000	5.951859	41.107548	3.021856	13.518122	-41.089359	-10.783125	-3.000000	71.105537	0.000000	21.851627	58.144054	-27.862787	-31.434965	-1.626074	-35.283627	3.410398	-7.157844	0.425441	32.747871	-49.719021	-51.284420	-2.094891	-68.503853	-5.134614	-33.384624	1.079426	68.799034	3.410398	-7.157844	0.425441	-50.324665	25.820658	-48.864216	-0.954400	-30.364887	5.446741	-17.660702	-5.292660	13.779924	28.038038	26.589489	-4.914678	-44.300991	-27.340132	45.726768	
-43.682781	32.510670	67.969223	-7.987809	-1.489412	50.471573	-9.550002	-3.063823	17.776321	3.000000	11.504965	0.000000	6.015360	42.333488	2.842920	14.439398	-41.862301	-10.136854	-3.000000	71.903008	0.000000	21.944111	59.280628	-26.021961	-30.948557	-1.473705	-35.269112	3.897576	-7.153998	0.486129	33.324932	-49.763622	-50.804657	-2.091977	-68.491959	-5.131903	-32.620186	1.352569	69.844139	3.897576	-7.153998	0.486129	-50.465679	25.589239	-48.937435	-0.954510	-30.363890	5.446685	-17.503817	-5.254997	13.783860	28.038038	26.589489	-4.914678	-43.918915	-27.684517	45.845428	
-43.902428	32.664707	67.721916	-8.292935	-1.739476	50.575554	-9.548662	-2.629600	16.997627	3.000000	9.575390	0.000000	5.324784	42.304489	2.915343	15.712502	-42.143578	-9.261370	-3.000000	71.564560	0.000000	21.814758	59.746761	-24.195946	-30.958687	-2.037579	-35.269424	4.300588	-6.829045	0.512320	33.906204	-50.496880	-50.198677	-2.107317	-68.554413	-5.146177	-31.937387	1.147692	70.935432	4.300588	-6.829045	0.512320	-50.465679	25.589239	-48.937435	-0.991216	-30.030600	5.428223	-17.001524	-5.960889	14.299356	28.149940	26.453661	-4.929264	-43.808144	-28.191532	46.209393	
-43.751854	32.714279	67.994881	-8.548744	-2.037532	50.583660	-9.304111	-1.327259	16.358927	3.000000	7.977361	0.000000	5.564245	42.659283	2.899954	17.048271	-42.181629	-8.349446	-3.000000	70.246178	0.000000	22.024860	60.130043	-23.809397	-30.636271	-2.043337	-35.259758	4.704715	-6.664683	0.547236	34.639435	-50.485332	-49.592251	-2.104089	-68.541298	-5.143173	-31.237091	1.432437	72.118866	4.704715	-6.664683	0.547236	-50.359039	25.368662	-49.185318	-1.011415	-29.846226	5.418142	-16.059443	-6.068468	14.667285	28.335413	26.439297	-4.959134	-43.878262	-28.480541	46.231640	
-43.674812	32.760464	67.839409	-8.914083	-2.461931	50.595482	-9.303329	-0.458587	15.603414	3.000000	6.148077	0.000000	5.098869	43.280205	2.963287	18.749653	-41.925140	-7.209772	-3.000000	67.435547	0.000000	24.046883	59.730293	-25.741146	-29.916451	-2.378311	-35.238106	5.191375	-6.659828	0.603697	34.929924	-50.387115	-48.824486	-2.064159	-68.377823	-5.106032	-30.795521	1.957439	73.305931	5.191375	-6.659828	0.603697	-50.288651	25.221384	-49.350067	-1.003955	-29.914402	5.421859	-15.522085	-6.218099	14.886045	28.591780	26.228954	-4.995122	-44.032478	-28.724695	46.399837	
